<svg id="Final_Logo" data-name="Final Logo" xmlns="http://www.w3.org/2000/svg" viewBox="0 0 836.33 876.49"><defs><style>.cls-1{fill:#0d47a1;}</style></defs><path class="cls-1" d="M877.82,987.83a10,10,0,0,1,3.6-7.68L815.24,839.91a10.49,10.49,0,0,1-1.87.18,9.79,9.79,0,0,1-2.5-.33v351.7l75.75-193.7A10,10,0,0,1,877.82,987.83Z" transform="translate(-331.82 -314.97)"/><path class="cls-1" d="M887.82,977.83a9.93,9.93,0,0,1,2.9.44l109.69-179.82a10,10,0,0,1-1.83-2.62L823.34,830.65a10,10,0,0,1-3.58,7.12L886,978A9.56,9.56,0,0,1,887.82,977.83Z" transform="translate(-331.82 -314.97)"/><path class="cls-1" d="M1005.19,644.81l126.24-52.23a9.2,9.2,0,0,1-.11-1.39,9.81,9.81,0,0,1,.61-3.4L1009,503.68a10,10,0,0,1-6.57,2.48c-.24,0-.47,0-.7,0,8.06,45.22,8.78,77.29-4.7,134.7h.15A10,10,0,0,1,1005.19,644.81Z" transform="translate(-331.82 -314.97)"/><path class="cls-1" d="M1012.46,496.16a9.89,9.89,0,0,1-.61,3.4l122.9,84.1a10,10,0,0,1,6.57-2.47l.41,0c-4.27-17.79-16-58.21-42.35-102.5a356.27,356.27,0,0,0-76.07-90.32c-37.19-31.41-81-54.64-130.25-69l-15-4.38,12.86,8.84c.22.15,21.84,15.15,46,43.86,21,25,48.11,65.62,61,119.58a10,10,0,0,1,14.54,8.91Z" transform="translate(-331.82 -314.97)"/><path class="cls-1" d="M1128.42,887.26a10.11,10.11,0,0,1,.71-3.7l-115.21-84.33a9.94,9.94,0,0,1-6.34,2.27,10.05,10.05,0,0,1-2.91-.44L895,980.88a9.94,9.94,0,0,1,2.83,7,8.77,8.77,0,0,1-.06,1,578.59,578.59,0,0,0,71.35-17.1C1011,959,1072.43,935.44,1131.9,894.84A10,10,0,0,1,1128.42,887.26Z" transform="translate(-331.82 -314.97)"/><path class="cls-1" d="M1161.5,657.2l-1.16-7.4-3.52,6.61c-.13.25-13.67,25.44-38.87,54.27-20.26,23.18-51.91,52.94-92.83,71.26a301.66,301.66,0,0,0,36.73-35.16c25.18-28.28,58.83-76.13,79.24-145.6a10,10,0,0,1-7.75-4l-126.23,52.23a10.45,10.45,0,0,1,.1,1.39,10,10,0,0,1-15,8.62c-21.06,66.78-92.06,146.47-169.9,166.11a1.86,1.86,0,0,1,.1.2l175.24-34.82a10,10,0,1,1,19.26,4.26l115.21,84.34a10,10,0,0,1,12.58-.08c3.94-9.64,10.06-27,15.12-51.62C1167.13,791.94,1173.41,733.2,1161.5,657.2Z" transform="translate(-331.82 -314.97)"/><path class="cls-1" d="M750,692a51,51,0,1,0,51,51A51,51,0,0,0,750,692Zm0,76.5a25.5,25.5,0,1,1,25.5-25.5A25.5,25.5,0,0,1,750,768.52Z" transform="translate(-331.82 -314.97)"/><rect class="cls-1" x="398.82" y="511.45" width="38.68" height="164.74" rx="7"/><path class="cls-1" d="M491,503.68l-122.9,84.11a9.81,9.81,0,0,1,.61,3.4,9.2,9.2,0,0,1-.11,1.39l126.24,52.23a10,10,0,0,1,8-4h.15c-13.49-57.42-12.76-89.49-4.7-134.7-.23,0-.46,0-.7,0A10,10,0,0,1,491,503.68Z" transform="translate(-331.82 -314.97)"/><path class="cls-1" d="M365.23,583.66l122.9-84.1a9.89,9.89,0,0,1-.61-3.4,10,10,0,0,1,14.54-8.91c12.9-54,40-94.56,61-119.58C587.21,339,608.82,324,609,323.81L621.9,315l-15,4.38c-49.23,14.4-93.06,37.63-130.25,69a356.48,356.48,0,0,0-76.07,90.32c-26.37,44.29-38.08,84.71-42.35,102.5l.41,0A10,10,0,0,1,365.23,583.66Z" transform="translate(-331.82 -314.97)"/><path class="cls-1" d="M605,980.88,495.31,801.06a9.95,9.95,0,0,1-9.25-1.83L370.85,883.56a10.11,10.11,0,0,1,.71,3.7,10,10,0,0,1-3.48,7.58C427.55,935.44,489,959,530.87,971.76a578.59,578.59,0,0,0,71.35,17.1,8.77,8.77,0,0,1-.05-1A9.93,9.93,0,0,1,605,980.88Z" transform="translate(-331.82 -314.97)"/><path class="cls-1" d="M499.57,798.45,609.26,978.27a10,10,0,0,1,2.91-.44A9.54,9.54,0,0,1,614,978l66.19-140.24a10,10,0,0,1-3.58-7.13L501.4,795.83A10,10,0,0,1,499.57,798.45Z" transform="translate(-331.82 -314.97)"/><path class="cls-1" d="M367.9,879.53l115.21-84.34a10,10,0,1,1,19.26-4.26l175.24,34.82a1.86,1.86,0,0,1,.1-.2c-77.84-19.64-148.84-99.33-169.9-166.11a10,10,0,0,1-15-8.62,10.45,10.45,0,0,1,.1-1.39L366.64,597.2a10,10,0,0,1-7.75,4c20.42,69.47,54.07,117.32,79.24,145.6a301.66,301.66,0,0,0,36.73,35.16c-40.92-18.32-72.57-48.08-92.83-71.26-25.2-28.83-38.74-54-38.87-54.27l-3.52-6.61-1.16,7.4c-11.91,76-5.63,134.74,1.73,170.63,5.05,24.65,11.17,42,15.11,51.62a10,10,0,0,1,12.58.08Z" transform="translate(-331.82 -314.97)"/><path class="cls-1" d="M684.74,839.91,618.56,980.15a10,10,0,0,1-5.2,17.61l75.75,193.7V839.76a9.79,9.79,0,0,1-2.5.33A10.49,10.49,0,0,1,684.74,839.91Z" transform="translate(-331.82 -314.97)"/></svg>